<?xml version="1.0" standalone="no"?>
<!DOCTYPE svg PUBLIC "-//W3C//DTD SVG 20010904//EN"
 "http://www.w3.org/TR/2001/REC-SVG-20010904/DTD/svg10.dtd">
<svg version="1.0" xmlns="http://www.w3.org/2000/svg"
 width="200.000000pt" height="200.000000pt" viewBox="0 0 200.000000 200.000000"
 preserveAspectRatio="xMidYMid meet">
<metadata>
Created by potrace 1.16, written by Peter Selinger 2001-2019
</metadata>
<g transform="translate(0.000000,200.000000) scale(0.100000,-0.100000)"
fill="#000000" stroke="none">
<path d="M820 1885 c-178 -38 -312 -109 -444 -234 -129 -124 -218 -279 -257
-447 -19 -81 -21 -114 -16 -237 7 -200 48 -326 158 -488 83 -123 244 -253 387
-313 152 -64 378 -86 540 -51 350 73 624 347 697 697 24 112 20 297 -9 410
-66 262 -249 481 -498 597 -45 22 -110 47 -143 56 -82 23 -327 29 -415 10z
m54 -357 c14 -20 16 -87 16 -532 0 -460 -2 -511 -17 -528 -21 -24 -60 -23 -73
1 -6 13 -10 199 -10 535 0 454 2 516 16 530 22 22 50 20 68 -6z m158 -65 c17
-15 18 -43 18 -464 l0 -448 -22 -15 c-29 -20 -34 -20 -58 4 -19 19 -20 33 -20
462 0 397 2 443 17 460 20 22 41 23 65 1z m-322 -113 c19 -19 20 -33 20 -348
0 -340 -1 -351 -41 -365 -9 -3 -26 1 -38 9 -21 15 -21 20 -21 354 0 339 0 339
22 354 29 20 34 20 58 -4z m801 -20 c18 -10 19 -25 19 -331 l0 -319 -24 -11
c-33 -16 -64 3 -71 44 -3 17 -5 158 -3 313 2 220 6 285 17 297 16 20 34 21 62
7z m-319 -37 c17 -15 18 -37 18 -291 0 -242 -2 -278 -17 -294 -22 -24 -49 -23
-67 4 -14 19 -16 64 -16 290 0 255 1 269 20 288 24 24 38 25 62 3z m156 -99
c21 -15 22 -21 22 -194 0 -173 -1 -179 -22 -194 -29 -20 -34 -20 -58 4 -18 18
-20 33 -20 190 0 157 2 172 20 190 24 24 29 24 58 4z m-953 -194 c0 -133 -1
-144 -20 -156 -18 -12 -24 -11 -43 2 -21 14 -22 22 -22 154 0 132 1 140 22
154 19 13 25 14 43 2 19 -12 20 -23 20 -156z m150 126 c16 -12 20 -29 23 -95
5 -109 -3 -149 -33 -163 -20 -9 -29 -8 -45 7 -18 16 -20 31 -20 123 0 84 3
109 17 124 19 22 33 23 58 4z m1130 0 c16 -12 20 -29 23 -95 5 -109 -3 -149
-33 -163 -20 -9 -29 -8 -45 7 -18 16 -20 31 -20 123 0 84 3 109 17 124 19 22
33 23 58 4z"/>
</g>
</svg>
